<svg width="11" height="11" viewBox="0 0 11 11" fill="none" xmlns="http://www.w3.org/2000/svg">
<path fill-rule="evenodd" clip-rule="evenodd" d="M10.4714 0.861949C10.7317 1.1223 10.7317 1.54441 10.4714 1.80476L1.8047 10.4714C1.54435 10.7318 1.12224 10.7318 0.861888 10.4714C0.601539 10.2111 0.601539 9.78897 0.861888 9.52862L9.52855 0.861949C9.7889 0.6016 10.211 0.6016 10.4714 0.861949ZM10.4714 5.52862C10.7317 5.78896 10.7317 6.21107 10.4714 6.47142L6.47136 10.4714C6.21101 10.7318 5.7889 10.7318 5.52855 10.4714C5.2682 10.2111 5.2682 9.78897 5.52855 9.52862L9.52855 5.52862C9.7889 5.26827 10.211 5.26827 10.4714 5.52862Z" fill="#8F8881"/>
</svg>
